<?xml version="1.0" encoding="utf-8"?>
<!-- Generator: Adobe Illustrator 16.0.0, SVG Export Plug-In . SVG Version: 6.00 Build 0)  -->
<!DOCTYPE svg PUBLIC "-//W3C//DTD SVG 1.0//EN" "http://www.w3.org/TR/2001/REC-SVG-20010904/DTD/svg10.dtd">
<svg version="1.0" id="Warstwa_1" xmlns="http://www.w3.org/2000/svg" xmlns:xlink="http://www.w3.org/1999/xlink" x="0px" y="0px"
	 width="278px" height="156px" viewBox="0 0 278 156" enable-background="new 0 0 278 156" xml:space="preserve">
<path fill="#1E1E1C" d="M266,2c5.523,0,10,4.478,10,10v54c0,5.521-4.477,10-10,10H12C6.477,76,2,71.521,2,66V12
	C2,6.478,6.477,2,12,2H266 M266,0H12C5.383,0,0,5.383,0,12v54c0,6.617,5.383,12,12,12h254c6.617,0,12-5.383,12-12V12
	C278,5.383,272.617,0,266,0L266,0z"/>
<path fill="#996414" d="M12,2h254c5.523,0,10,4.478,10,10v54c0,5.521-4.477,10-10,10H12C6.477,76,2,71.521,2,66V12
	C2,6.478,6.477,2,12,2z"/>
<path fill="#F7A82A" d="M12,2h254c5.523,0,10,4.114,10,9.189v49.622c0,5.074-4.477,9.188-10,9.188H12c-5.523,0-10-4.114-10-9.188
	V11.189C2,6.114,6.477,2,12,2z"/>
<path fill="#D28B1A" d="M274,13.09v47.721c0,3.959-3.59,7.189-8,7.189H12c-4.41,0-8-3.23-8-7.189V13.09l-2-2v49.721
	C2,65.891,6.48,70,12,70h254c5.52,0,10-4.109,10-9.189V11.09L274,13.09z"/>
<path fill="#FCC365" d="M275,59.91V12.19c0-5.08-3.48-9.19-9-9.19H12c-5.52,0-9,4.11-9,9.19v47.72l1.343,2.98L4,12.19
	C4,8.23,7.59,5,12,5h254c4.41,0,8,3.23,8,7.19l-0.343,50.701L275,59.91z"/>
<path fill="#9C6814" d="M144.93,53.48h-9.74l-1.27-4.812h-6.81l-1.3,4.812H113l-5.45-9.352h-0.18v9.352h-8.94V40.73
	c-0.38,0.59-0.84,1.129-1.36,1.619c-1.88,1.729-4.53,2.609-7.9,2.609h-0.95v8.521h-8.94v-3.66c-0.89,1.229-2.12,2.209-3.67,2.898
	c-1.65,0.74-3.59,1.12-5.78,1.12c-1.77,0-3.28-0.13-4.5-0.38c-1.24-0.26-2.53-0.71-3.85-1.34l-0.57-0.271v-8.459l1.45,0.75
	c1.26,0.649,2.58,1.149,3.93,1.521c1.34,0.35,2.58,0.53,3.69,0.53c1.05,0,1.5-0.211,1.67-0.342c0.26-0.188,0.31-0.369,0.31-0.568
	c0-0.182-0.05-0.271-0.09-0.33c-0.07-0.09-0.24-0.29-0.66-0.551c-0.27-0.17-1.05-0.58-3.3-1.59C66.13,42,64.82,41.23,63.9,40.45
	c-0.95-0.81-1.66-1.76-2.13-2.82c-0.46-1.05-0.69-2.29-0.69-3.69c0-2.68,1-4.81,2.98-6.33c1.89-1.46,4.48-2.19,7.71-2.19
	c2.46,0,4.98,0.5,7.51,1.5v-1.13h9.89c3.48,0,6.16,0.79,7.97,2.37c0.5,0.43,0.93,0.92,1.29,1.45v-3.82h9.42
	c9.48,0,11.47,4.67,11.47,8.59c0,3.02-1.33,5.44-3.95,7.21l3.05,4.561l6.65-20.469h10.71L144.93,53.48z M218.67,45.88v7.601h-22.02
	V48.4c-0.342,0.47-0.73,0.908-1.142,1.318c-2.55,2.5-6.13,3.762-10.659,3.762h-9.32v-17.3l-4.26,17.3h-9.801l-2.63-11.98
	c-0.05-0.17-0.101-0.4-0.159-0.7c-0.029,0.12-0.051,0.24-0.08,0.36c-0.199,0.949-1.061,4.8-2.561,11.54l-0.17,0.78h-9.79
	l-6.86-27.69H148l2.96,13.67c0.101,0.45,0.2,0.88,0.29,1.3c0.35-1.77,0.68-3.28,0.98-4.5l2.449-10.47h8.021l2.38,10.5
	c0.311,1.29,0.63,2.78,0.949,4.42c0.08-0.38,0.171-0.79,0.261-1.21l3.021-13.71h16.119c4.37,0,7.812,1.15,10.24,3.43
	c0.45,0.43,0.87,0.89,1.24,1.39v-4.82h5.29v-1.91l0.271-0.28c1.789-1.92,2.939-3.17,3.409-3.72c0.47-0.54,0.851-1.02,1.149-1.44
	l0.301-0.42h9.04v1.85l-0.38,0.3c-0.95,0.76-2.26,1.74-3.91,2.9c-1.65,1.17-2.92,2.03-3.78,2.57l-0.239,0.15h10.33v5.58
	l-10.201,14.51H218.67z M190.141,39.34c0-2.11-0.391-3.66-1.17-4.61c-0.74-0.9-1.871-1.34-3.471-1.34h-1.02v12.4h0.539
	c1.811,0,3.069-0.479,3.859-1.46C189.721,43.29,190.141,41.609,190.141,39.34z M206.85,33.39h-8.438c0.63,1.66,0.938,3.56,0.938,5.7
	c0,2.521-0.39,4.73-1.18,6.631L206.85,33.39z"/>
<path fill="#1E1E1C" d="M215.367,14.963v0.369c-0.938,0.75-2.227,1.705-3.867,2.865c-1.641,1.16-2.883,2.004-3.727,2.531h-4.57
	v-0.51c1.805-1.934,2.949-3.182,3.438-3.744c0.486-0.562,0.887-1.066,1.203-1.512L215.367,14.963 M71.768,22.416
	c2.66,0,5.373,0.615,8.139,1.846l-2.127,5.361c-2.402-1.102-4.477-1.652-6.223-1.652c-0.902,0-1.559,0.158-1.969,0.475
	c-0.41,0.317-0.615,0.709-0.615,1.178c0,0.504,0.261,0.955,0.782,1.354s1.937,1.125,4.245,2.18c2.215,0.996,3.753,2.065,4.614,3.208
	c0.861,1.143,1.292,2.581,1.292,4.315c0,1.594-0.404,3.008-1.213,4.244s-1.975,2.197-3.498,2.883
	c-1.523,0.687-3.311,1.028-5.361,1.028c-1.711,0-3.146-0.12-4.307-0.36c-1.161-0.24-2.367-0.658-3.621-1.256v-6.189
	c1.324,0.681,2.701,1.211,4.131,1.592c1.43,0.381,2.742,0.57,3.938,0.57c1.031,0,1.787-0.178,2.268-0.535s0.721-0.817,0.721-1.381
	c0-0.352-0.097-0.658-0.29-0.922c-0.193-0.265-0.504-0.53-0.932-0.801c-0.428-0.27-1.567-0.82-3.419-1.652
	c-1.676-0.762-2.933-1.5-3.771-2.215c-0.838-0.715-1.459-1.535-1.863-2.461c-0.404-0.926-0.606-2.021-0.606-3.287
	c0-2.367,0.861-4.213,2.584-5.537C66.39,23.079,68.756,22.416,71.768,22.416 M135.06,22.68l8.49,25.8h-7.59l-1.27-4.812h-8.35
	l-1.3,4.812h-11.46l-5.45-9.352h-1.76v9.352h-6.94V22.79h8.42c6.98,0,10.47,2.53,10.47,7.59c0,2.98-1.45,5.28-4.36,6.91l4.77,7.13
	l7.07-21.74H135.06 M127.78,37.97h5.47l-1.11-4.22c-0.26-0.93-0.57-2.15-0.94-3.63c-0.37-1.49-0.61-2.56-0.73-3.2
	c-0.1,0.59-0.31,1.58-0.62,2.95C129.54,31.24,128.85,33.94,127.78,37.97 M106.37,33.91h1.3c2.43,0,3.64-1.07,3.64-3.21
	c0-1.77-1.19-2.66-3.57-2.66h-1.37V33.91 M217.389,22.785v4.271l-11.127,15.82h11.408v5.606h-20.021v-4.289l11.127-15.802h-10.862
	v-5.607L217.389,22.785 M89.174,22.785c3.246,0,5.684,0.709,7.313,2.127c1.629,1.418,2.443,3.434,2.443,6.047
	c0,2.871-0.847,5.089-2.54,6.653c-1.693,1.564-4.099,2.347-7.216,2.347h-1.951v8.525H80.28V22.785H89.174 M87.223,34.299h1.266
	c1.043,0,1.872-0.293,2.487-0.879c0.615-0.586,0.923-1.395,0.923-2.426c0-1.734-0.961-2.602-2.883-2.602h-1.793V34.299
	 M185.43,22.79c4.12,0,7.312,1.05,9.551,3.16c2.25,2.11,3.369,5.16,3.369,9.14c0,4.29-1.18,7.59-3.539,9.91s-5.689,3.48-9.961,3.48
	h-8.318V23.93l-6.051,24.55h-8.211l-2.459-11.19c-0.109-0.47-0.301-1.4-0.551-2.8c-0.25-1.39-0.439-2.56-0.55-3.5
	c-0.101,0.771-0.25,1.71-0.46,2.84s-0.42,2.17-0.63,3.12c-0.2,0.95-1.05,4.8-2.55,11.53h-8.211L140.5,22.79h6.689l2.801,12.88
	c0.63,2.85,1.06,5.12,1.3,6.801c0.149-1.189,0.42-2.82,0.819-4.871c0.391-2.05,0.75-3.75,1.091-5.09l2.271-9.72h6.439l2.189,9.72
	c0.381,1.55,0.76,3.35,1.149,5.39c0.38,2.04,0.64,3.56,0.771,4.571c0.149-1.301,0.569-3.551,1.25-6.761l2.84-12.92H185.43
	 M183.48,42.79h1.539c2.109,0,3.66-0.61,4.641-1.84c0.99-1.22,1.479-3.09,1.479-5.61c0-2.36-0.459-4.11-1.398-5.24
	c-0.932-1.14-2.34-1.71-4.24-1.71h-2.02V42.79 M215.367,13.763h-7.523c-0.389,0-0.753,0.188-0.979,0.505
	c-0.293,0.412-0.674,0.891-1.135,1.422c-0.474,0.548-1.619,1.796-3.404,3.71c-0.208,0.222-0.323,0.515-0.323,0.819v0.51
	c0,0.335,0.138,0.639,0.36,0.856h-4.451c-0.663,0-1.2,0.538-1.2,1.2v3.255c-0.282-0.339-0.586-0.661-0.909-0.966
	c-2.455-2.312-5.945-3.485-10.373-3.485h-15.32c-0.563,0-1.051,0.392-1.172,0.942l-2.84,12.92c-0.02,0.088-0.037,0.176-0.057,0.263
	c-0.27-1.313-0.525-2.466-0.777-3.492l-2.184-9.697c-0.124-0.547-0.609-0.937-1.171-0.937h-6.44c-0.558,0-1.042,0.384-1.169,0.927
	l-2.271,9.72c-0.242,0.959-0.504,2.13-0.787,3.543c-0.026-0.122-0.055-0.245-0.081-0.369l-2.8-12.876
	c-0.119-0.552-0.607-0.945-1.172-0.945h-6.69c-0.369,0-0.718,0.17-0.944,0.46c-0.229,0.291-0.31,0.67-0.221,1.028l6.359,25.689
	c0.134,0.537,0.613,0.912,1.166,0.912h8.209c0.563,0,1.05-0.391,1.172-0.939c1.207-5.418,2.09-9.401,2.438-11.005l2.42,11.003
	c0.12,0.55,0.607,0.941,1.172,0.941h8.211c0.552,0,1.033-0.377,1.164-0.912l3.686-14.954V48.48c0,0.662,0.537,1.199,1.199,1.199
	h8.32c4.586,0,8.221-1.287,10.801-3.824c0.281-0.276,0.547-0.564,0.797-0.867v3.496c0,0.662,0.537,1.199,1.201,1.199h20.021
	c0.663,0,1.2-0.537,1.2-1.199v-5.607c0-0.663-0.537-1.199-1.2-1.199h-9.097l9.797-13.931c0.143-0.202,0.219-0.443,0.219-0.69v-4.271
	c0-0.663-0.537-1.2-1.199-1.2h-8.726c0.849-0.542,2.032-1.351,3.528-2.408c1.651-1.168,2.973-2.147,3.924-2.908
	c0.285-0.228,0.451-0.572,0.451-0.937v-0.369C216.566,14.3,216.029,13.763,215.367,13.763L215.367,13.763z M184.682,29.59h0.818
	c1.531,0,2.613,0.415,3.311,1.269c0.752,0.904,1.129,2.409,1.129,4.481c0,2.23-0.406,3.864-1.211,4.854
	c-0.75,0.941-1.963,1.396-3.709,1.396h-0.338V29.59L184.682,29.59z M198.7,29.593h7.763l-7.621,10.822
	c0.471-1.593,0.708-3.371,0.708-5.325C199.55,33.041,199.266,31.206,198.7,29.593L198.7,29.593z M71.768,21.216
	c-3.269,0-5.904,0.752-7.833,2.235c-2.025,1.557-3.053,3.74-3.053,6.488c0,1.426,0.238,2.693,0.707,3.768
	c0.476,1.089,1.21,2.063,2.184,2.894c0.932,0.795,2.258,1.578,4.053,2.394c2.354,1.058,3.063,1.44,3.276,1.575
	c0.405,0.256,0.557,0.432,0.604,0.494c0.03,0.041,0.058,0.096,0.058,0.213c0,0.133-0.018,0.255-0.237,0.418
	c-0.121,0.09-0.514,0.299-1.551,0.299c-1.085,0-2.306-0.18-3.628-0.53c-1.341-0.356-2.65-0.86-3.892-1.499
	c-0.172-0.089-0.36-0.133-0.548-0.133c-0.217,0-0.434,0.059-0.625,0.176c-0.357,0.219-0.575,0.605-0.575,1.024v6.188
	c0,0.463,0.266,0.883,0.684,1.082c1.334,0.637,2.645,1.09,3.894,1.35c1.234,0.256,2.765,0.386,4.55,0.386
	c2.212,0,4.182-0.382,5.854-1.134c1.377-0.62,2.514-1.457,3.391-2.491v2.073c0,0.662,0.538,1.199,1.2,1.199h6.943
	c0.663,0,1.2-0.537,1.2-1.199v-7.325h0.751c3.414,0,6.116-0.896,8.03-2.666c0.378-0.35,0.721-0.728,1.026-1.133v11.121
	c0,0.662,0.538,1.199,1.2,1.199h6.94c0.663,0,1.2-0.537,1.2-1.199v-7.928l4.973,8.531c0.215,0.369,0.61,0.596,1.037,0.596h11.46
	c0.542,0,1.017-0.363,1.159-0.887l1.06-3.924h6.507l1.034,3.917c0.139,0.526,0.615,0.894,1.16,0.894h7.59
	c0.385,0,0.746-0.185,0.973-0.496c0.227-0.313,0.287-0.713,0.168-1.078l-8.49-25.8c-0.162-0.492-0.622-0.825-1.14-0.825h-9.26
	c-0.52,0-0.98,0.335-1.141,0.829L118.354,41.7l-2.708-4.048c2.573-1.802,3.875-4.242,3.875-7.27c0-4.01-2.025-8.79-11.67-8.79h-8.42
	c-0.663,0-1.2,0.538-1.2,1.2v2.203c-0.286-0.352-0.605-0.681-0.956-0.986c-1.846-1.607-4.572-2.422-8.101-2.422h-8.895
	c-0.609,0-1.112,0.454-1.19,1.042C76.621,21.69,74.163,21.216,71.768,21.216L71.768,21.216z M79.079,35.057
	c-1.017-1.084-2.526-2.069-4.586-2.995c-2.9-1.325-3.757-1.846-4.009-2.039c-0.116-0.088-0.311-0.258-0.311-0.4
	c0-0.056,0-0.113,0.148-0.228c0.049-0.038,0.337-0.225,1.236-0.225c1.564,0,3.489,0.519,5.723,1.543
	c0.158,0.073,0.329,0.109,0.5,0.109c0.151,0,0.303-0.029,0.447-0.086c0.306-0.123,0.547-0.365,0.668-0.671l0.184-0.464V35.057
	L79.079,35.057z M107.57,29.24h0.17c2.37,0,2.37,0.914,2.37,1.46c0,1.241-0.408,2.01-2.44,2.01h-0.1V29.24L107.57,29.24z
	 M88.423,29.593h0.593c1.556,0,1.683,0.635,1.683,1.401c0,0.695-0.18,1.204-0.55,1.557c-0.387,0.369-0.93,0.548-1.66,0.548h-0.065
	L88.423,29.593L88.423,29.593z M129.339,36.77c0.479-1.819,0.869-3.324,1.166-4.504c0.177,0.69,0.335,1.29,0.48,1.807l0.709,2.697
	H129.339L129.339,36.77z"/>
<path fill="#FFFFFF" d="M79.907,40.68c0,1.594-0.404,3.01-1.213,4.245c-0.809,1.236-1.975,2.197-3.498,2.884
	c-1.523,0.686-3.311,1.027-5.361,1.027c-1.711,0-3.146-0.12-4.307-0.359c-1.161-0.24-2.367-0.66-3.621-1.258v-6.188
	c1.324,0.68,2.701,1.21,4.131,1.591c1.43,0.381,2.742,0.571,3.938,0.571c1.031,0,1.787-0.18,2.268-0.537
	c0.481-0.356,0.721-0.816,0.721-1.379c0-0.353-0.097-0.659-0.29-0.924c-0.193-0.264-0.504-0.529-0.932-0.799
	c-0.428-0.271-1.567-0.821-3.419-1.653c-1.676-0.762-2.933-1.5-3.771-2.215c-0.838-0.715-1.459-1.535-1.863-2.461
	c-0.404-0.926-0.606-2.021-0.606-3.287c0-2.367,0.861-4.213,2.584-5.537c1.723-1.324,4.09-1.986,7.102-1.986
	c2.66,0,5.373,0.615,8.139,1.846l-2.127,5.361c-2.402-1.102-4.477-1.652-6.223-1.652c-0.902,0-1.559,0.158-1.969,0.475
	c-0.41,0.317-0.615,0.709-0.615,1.178c0,0.504,0.261,0.955,0.782,1.354s1.937,1.125,4.245,2.18c2.215,0.996,3.753,2.065,4.614,3.208
	C79.477,37.509,79.907,38.945,79.907,40.68z M98.93,30.959c0,2.871-0.847,5.089-2.54,6.653c-1.693,1.564-4.099,2.347-7.216,2.347
	h-1.951v8.525H80.28V22.785h8.895c3.246,0,5.684,0.709,7.313,2.127C98.117,26.33,98.93,28.346,98.93,30.959z M87.223,34.299h1.266
	c1.043,0,1.872-0.293,2.487-0.879c0.615-0.586,0.923-1.395,0.923-2.426c0-1.734-0.961-2.602-2.883-2.602h-1.793V34.299z
	 M135.06,22.68h-9.26l-7.07,21.74l-4.77-7.13c2.91-1.63,4.36-3.93,4.36-6.91c0-5.06-3.49-7.59-10.47-7.59h-8.42v25.69h6.94V39.13
	h1.76l5.45,9.351h11.46l1.3-4.811h8.35l1.27,4.811h7.59L135.06,22.68z M107.67,33.91h-1.3v-5.87h1.37c2.38,0,3.57,0.89,3.57,2.66
	C111.31,32.84,110.1,33.91,107.67,33.91z M127.78,37.97c1.07-4.03,1.76-6.73,2.07-8.1c0.31-1.37,0.52-2.36,0.62-2.95
	c0.12,0.64,0.36,1.71,0.73,3.2c0.37,1.48,0.68,2.7,0.94,3.63l1.11,4.22H127.78z M194.98,25.95c-2.24-2.11-5.432-3.16-9.551-3.16
	h-15.32l-2.84,12.92c-0.681,3.21-1.101,5.46-1.25,6.761c-0.131-1.011-0.391-2.531-0.771-4.571c-0.39-2.04-0.771-3.84-1.149-5.39
	l-2.189-9.72h-6.439l-2.271,9.72c-0.341,1.34-0.7,3.04-1.091,5.09c-0.399,2.05-0.67,3.679-0.819,4.871
	c-0.24-1.681-0.67-3.951-1.3-6.801l-2.801-12.88H140.5l6.359,25.69h8.211c1.5-6.73,2.35-10.582,2.55-11.53
	c0.21-0.95,0.42-1.99,0.63-3.12s0.359-2.07,0.46-2.84c0.11,0.94,0.3,2.11,0.55,3.5c0.25,1.4,0.44,2.33,0.551,2.8l2.459,11.19h8.211
	l6.051-24.55v24.55h8.318c4.271,0,7.602-1.16,9.961-3.48s3.539-5.62,3.539-9.91C198.35,31.11,197.23,28.06,194.98,25.95z
	 M189.66,40.95c-0.98,1.229-2.53,1.84-4.641,1.84h-1.539v-14.4h2.02c1.9,0,3.311,0.57,4.24,1.71c0.939,1.13,1.398,2.88,1.398,5.24
	C191.141,37.86,190.65,39.73,189.66,40.95z M217.67,48.484h-20.021v-4.289l11.127-15.803h-10.862v-5.607h19.478v4.271l-11.127,15.82
	h11.407L217.67,48.484L217.67,48.484z M203.203,20.729v-0.51c1.805-1.934,2.949-3.182,3.438-3.744
	c0.486-0.562,0.887-1.066,1.203-1.512h7.523v0.369c-0.938,0.75-2.227,1.705-3.867,2.865c-1.641,1.16-2.883,2.004-3.727,2.531
	L203.203,20.729L203.203,20.729z"/>
<path fill="#FCC365" d="M47.449,11.335c0,1.653-1.217,2.992-2.718,2.992h-0.709c-1.501,0-2.718-1.339-2.718-2.992l0,0
	c0-1.652,1.217-2.992,2.718-2.992h0.709C46.232,8.343,47.449,9.683,47.449,11.335L47.449,11.335z M36.685,8.343h-24.92
	c-0.119,0-0.238,0.011-0.347,0.024c-0.13,0.011-0.26,0.047-0.38,0.083c-0.108,0.036-0.206,0.072-0.303,0.12
	c-0.011,0-0.022,0-0.033,0.012c-0.098,0.048-0.195,0.095-0.282,0.155c-0.412,0.25-0.77,0.632-1.02,1.11l-0.239,0.597l-0.01,0.048
	L7.363,18.02c-0.749,1.432-0.304,3.259,1.008,4.083c1.291,0.824,2.96,0.322,3.708-1.11l1.454-6.668h23.151
	c1.507,0,2.721-1.337,2.721-2.984C39.406,9.68,38.191,8.343,36.685,8.343z"/>
<path fill="#1E1E1C" d="M266,80c5.523,0,10,4.479,10,10v54c0,5.521-4.477,10-10,10H12c-5.523,0-10-4.479-10-10V90
	c0-5.521,4.477-10,10-10H266 M266,78H12C5.383,78,0,83.383,0,90v54c0,6.617,5.383,12,12,12h254c6.617,0,12-5.383,12-12V90
	C278,83.383,272.617,78,266,78L266,78z"/>
<path fill="#996414" d="M12,80h254c5.523,0,10,4.479,10,10v54c0,5.521-4.477,10-10,10H12c-5.523,0-10-4.479-10-10V90
	C2,84.479,6.477,80,12,80z"/>
<path opacity="0.9" fill="#F7A82A" enable-background="new    " d="M12,81h254c5.523,0,10,4.113,10,9.189v52.621
	c0,5.074-4.477,9.188-10,9.188H12c-5.523,0-10-4.114-10-9.188V90.189C2,85.113,6.477,81,12,81z"/>
<path fill="#D28B1A" d="M274,92.09v50.721c0,3.959-3.59,7.189-8,7.189H12c-4.41,0-8-3.23-8-7.189V92.09l-2-2v52.721
	C2,147.891,6.48,152,12,152h254c5.52,0,10-4.109,10-9.189V90.09L274,92.09z"/>
<path fill="#FCC365" d="M275,141.91V91.189c0-5.08-3.48-9.189-9-9.189H12c-5.52,0-9,4.109-9,9.189v50.721l1.343,2.98L4,91.189
	C4,87.23,7.59,84,12,84h254c4.41,0,8,3.23,8,7.189l-0.343,53.701L275,141.91z"/>
<path fill="#9C6814" d="M144.93,132.48h-9.74l-1.27-4.812h-6.81l-1.3,4.812H113l-5.45-9.352h-0.18v9.352h-8.94v-12.75
	c-0.38,0.59-0.84,1.129-1.36,1.619c-1.88,1.729-4.53,2.609-7.9,2.609h-0.95v8.521h-8.94v-3.66c-0.89,1.229-2.12,2.209-3.67,2.898
	c-1.65,0.74-3.59,1.12-5.78,1.12c-1.77,0-3.28-0.13-4.5-0.38c-1.24-0.26-2.53-0.71-3.85-1.34l-0.57-0.271v-8.459l1.45,0.75
	c1.26,0.649,2.58,1.149,3.93,1.521c1.34,0.35,2.58,0.53,3.69,0.53c1.05,0,1.5-0.211,1.67-0.342c0.26-0.188,0.31-0.369,0.31-0.568
	c0-0.182-0.05-0.271-0.09-0.33c-0.07-0.09-0.24-0.29-0.66-0.551c-0.27-0.17-1.05-0.58-3.3-1.59c-1.78-0.809-3.09-1.578-4.01-2.358
	c-0.95-0.81-1.66-1.761-2.13-2.82c-0.46-1.05-0.69-2.29-0.69-3.69c0-2.68,1-4.81,2.98-6.33c1.89-1.459,4.48-2.189,7.71-2.189
	c2.46,0,4.98,0.5,7.51,1.5v-1.13h9.89c3.48,0,6.16,0.79,7.97,2.37c0.5,0.43,0.93,0.92,1.29,1.449v-3.819h9.42
	c9.48,0,11.47,4.67,11.47,8.59c0,3.021-1.33,5.44-3.95,7.21l3.05,4.561l6.65-20.469h10.709L144.93,132.48z M218.67,124.88v7.601
	h-22.02v-5.08c-0.342,0.47-0.73,0.908-1.142,1.318c-2.55,2.5-6.13,3.762-10.659,3.762h-9.32V115.18l-4.26,17.301h-9.799
	l-2.631-11.98c-0.05-0.17-0.1-0.4-0.16-0.7c-0.029,0.12-0.05,0.24-0.08,0.36c-0.199,0.949-1.06,4.8-2.56,11.54l-0.17,0.78h-9.79
	l-6.859-27.69H148l2.96,13.67c0.101,0.45,0.2,0.88,0.29,1.3c0.35-1.77,0.68-3.279,0.98-4.5l2.449-10.47h8.021l2.38,10.5
	c0.311,1.29,0.63,2.78,0.949,4.42c0.08-0.38,0.171-0.79,0.261-1.21l3.021-13.71h16.119c4.37,0,7.812,1.149,10.24,3.431
	c0.45,0.43,0.87,0.889,1.24,1.389v-4.819h5.29v-1.91l0.271-0.28c1.789-1.92,2.939-3.17,3.409-3.72c0.47-0.54,0.851-1.021,1.149-1.44
	l0.301-0.42h9.04v1.851l-0.38,0.3c-0.95,0.76-2.26,1.74-3.91,2.9c-1.65,1.17-2.92,2.029-3.78,2.57l-0.239,0.149h10.33v5.58
	l-10.201,14.51H218.67z M190.141,118.34c0-2.109-0.391-3.66-1.17-4.609c-0.74-0.9-1.871-1.34-3.471-1.34h-1.02v12.399h0.539
	c1.811,0,3.069-0.479,3.859-1.46C189.721,122.29,190.141,120.609,190.141,118.34z M206.85,112.391h-8.438
	c0.63,1.659,0.938,3.56,0.938,5.699c0,2.521-0.39,4.73-1.18,6.631L206.85,112.391z"/>
<path fill="#1E1E1C" d="M215.367,95.963v0.369c-0.938,0.75-2.227,1.705-3.867,2.865s-2.883,2.004-3.727,2.531h-4.57v-0.511
	c1.805-1.934,2.949-3.182,3.438-3.743c0.486-0.563,0.887-1.066,1.203-1.513L215.367,95.963 M71.768,103.416
	c2.66,0,5.373,0.615,8.139,1.846l-2.127,5.361c-2.402-1.102-4.477-1.652-6.223-1.652c-0.902,0-1.559,0.158-1.969,0.475
	c-0.41,0.318-0.615,0.709-0.615,1.179c0,0.504,0.261,0.955,0.782,1.354c0.521,0.398,1.937,1.125,4.245,2.18
	c2.215,0.996,3.753,2.064,4.614,3.208c0.861,1.143,1.292,2.581,1.292,4.315c0,1.594-0.404,3.008-1.213,4.244
	s-1.975,2.197-3.498,2.883c-1.523,0.687-3.311,1.028-5.361,1.028c-1.711,0-3.146-0.12-4.307-0.36
	c-1.161-0.24-2.367-0.658-3.621-1.256v-6.189c1.324,0.681,2.701,1.211,4.131,1.592c1.43,0.381,2.742,0.57,3.938,0.57
	c1.031,0,1.787-0.178,2.268-0.535s0.721-0.817,0.721-1.381c0-0.352-0.097-0.658-0.29-0.922c-0.193-0.265-0.504-0.53-0.932-0.801
	c-0.428-0.27-1.567-0.82-3.419-1.652c-1.676-0.762-2.933-1.5-3.771-2.215c-0.838-0.715-1.459-1.535-1.863-2.461
	s-0.606-2.021-0.606-3.287c0-2.367,0.861-4.213,2.584-5.537C66.39,104.079,68.756,103.416,71.768,103.416 M135.061,103.68
	l8.489,25.801h-7.59l-1.271-4.812h-8.35l-1.3,4.812h-11.46l-5.45-9.352h-1.76v9.352h-6.94v-25.69h8.42c6.98,0,10.47,2.53,10.47,7.59
	c0,2.979-1.45,5.28-4.36,6.91l4.77,7.13l7.07-21.74H135.061 M127.78,118.971h5.47l-1.109-4.221c-0.261-0.93-0.57-2.15-0.94-3.63
	c-0.37-1.49-0.61-2.56-0.73-3.2c-0.1,0.59-0.31,1.58-0.62,2.95S128.85,114.939,127.78,118.971 M106.37,114.91h1.3
	c2.43,0,3.64-1.07,3.64-3.21c0-1.771-1.19-2.66-3.57-2.66h-1.37V114.91 M217.389,103.785v4.271l-11.127,15.819h11.408v5.606h-20.021
	v-4.289l11.127-15.803h-10.862v-5.606L217.389,103.785 M89.174,103.785c3.246,0,5.684,0.709,7.313,2.127
	c1.629,1.418,2.443,3.434,2.443,6.047c0,2.871-0.847,5.089-2.54,6.652c-1.693,1.564-4.099,2.348-7.216,2.348h-1.951v8.525H80.28
	v-25.699H89.174 M87.223,115.299h1.266c1.043,0,1.872-0.293,2.487-0.879c0.615-0.586,0.923-1.395,0.923-2.426
	c0-1.734-0.961-2.602-2.883-2.602h-1.793V115.299 M185.43,103.79c4.12,0,7.312,1.05,9.551,3.16c2.25,2.11,3.369,5.159,3.369,9.14
	c0,4.29-1.18,7.59-3.539,9.91s-5.689,3.48-9.961,3.48h-8.318V104.93l-6.051,24.551h-8.211l-2.459-11.19
	c-0.109-0.47-0.301-1.399-0.551-2.8c-0.25-1.391-0.439-2.561-0.55-3.5c-0.101,0.77-0.25,1.71-0.46,2.84s-0.42,2.17-0.63,3.12
	c-0.2,0.95-1.05,4.8-2.55,11.53h-8.211l-6.359-25.69h6.689l2.801,12.88c0.63,2.85,1.06,5.12,1.3,6.801
	c0.149-1.189,0.42-2.82,0.819-4.871c0.391-2.05,0.75-3.75,1.091-5.09l2.271-9.72h6.439l2.189,9.72
	c0.381,1.551,0.76,3.35,1.149,5.391c0.38,2.039,0.64,3.561,0.771,4.57c0.149-1.301,0.569-3.551,1.25-6.761l2.84-12.92H185.43
	 M183.48,123.79h1.539c2.109,0,3.66-0.61,4.641-1.84c0.99-1.22,1.479-3.091,1.479-5.61c0-2.359-0.459-4.109-1.398-5.24
	c-0.932-1.14-2.34-1.709-4.24-1.709h-2.02V123.79 M215.367,94.764h-7.523c-0.389,0-0.753,0.188-0.979,0.504
	c-0.293,0.412-0.674,0.892-1.135,1.422c-0.474,0.549-1.619,1.797-3.404,3.711c-0.208,0.222-0.323,0.515-0.323,0.818v0.51
	c0,0.336,0.138,0.64,0.36,0.856h-4.451c-0.663,0-1.2,0.538-1.2,1.2v3.255c-0.282-0.339-0.586-0.661-0.909-0.966
	c-2.455-2.313-5.945-3.485-10.373-3.485h-15.32c-0.563,0-1.051,0.392-1.172,0.942l-2.84,12.92c-0.02,0.089-0.037,0.176-0.057,0.263
	c-0.27-1.313-0.525-2.466-0.777-3.491l-2.184-9.697c-0.124-0.547-0.609-0.937-1.171-0.937h-6.44c-0.558,0-1.042,0.384-1.169,0.927
	l-2.271,9.721c-0.242,0.959-0.504,2.13-0.787,3.543c-0.026-0.122-0.055-0.245-0.081-0.369l-2.8-12.876
	c-0.119-0.552-0.607-0.945-1.172-0.945h-6.69c-0.369,0-0.718,0.17-0.944,0.46c-0.229,0.291-0.31,0.67-0.221,1.028l6.359,25.69
	c0.134,0.535,0.613,0.912,1.166,0.912h8.209c0.563,0,1.05-0.392,1.172-0.939c1.207-5.42,2.09-9.401,2.438-11.006l2.42,11.002
	c0.12,0.551,0.607,0.943,1.172,0.943h8.211c0.552,0,1.033-0.377,1.164-0.914l3.686-14.953v14.668c0,0.662,0.537,1.199,1.199,1.199
	h8.32c4.586,0,8.221-1.287,10.801-3.824c0.281-0.276,0.547-0.564,0.797-0.867v3.496c0,0.662,0.537,1.199,1.201,1.199h20.021
	c0.663,0,1.2-0.537,1.2-1.199v-5.607c0-0.663-0.537-1.199-1.2-1.199h-9.097l9.797-13.931c0.143-0.202,0.219-0.442,0.219-0.69v-4.271
	c0-0.663-0.537-1.2-1.199-1.2h-8.726c0.849-0.542,2.032-1.352,3.528-2.408c1.651-1.168,2.973-2.146,3.924-2.908
	c0.285-0.228,0.451-0.572,0.451-0.937v-0.369C216.566,95.3,216.029,94.764,215.367,94.764L215.367,94.764z M184.682,110.59h0.818
	c1.531,0,2.613,0.415,3.311,1.27c0.752,0.904,1.129,2.408,1.129,4.48c0,2.23-0.406,3.863-1.211,4.854
	c-0.75,0.941-1.963,1.396-3.709,1.396h-0.338V110.59L184.682,110.59z M198.7,110.593h7.763l-7.621,10.822
	c0.471-1.593,0.708-3.371,0.708-5.325C199.55,114.041,199.266,112.206,198.7,110.593L198.7,110.593z M71.768,102.216
	c-3.269,0-5.904,0.752-7.833,2.235c-2.025,1.557-3.053,3.74-3.053,6.488c0,1.426,0.238,2.692,0.707,3.768
	c0.476,1.09,1.21,2.063,2.184,2.895c0.932,0.795,2.258,1.578,4.053,2.394c2.354,1.06,3.063,1.44,3.276,1.575
	c0.405,0.256,0.557,0.432,0.604,0.494c0.03,0.041,0.058,0.096,0.058,0.213c0,0.133-0.018,0.255-0.237,0.418
	c-0.121,0.09-0.514,0.299-1.551,0.299c-1.085,0-2.306-0.18-3.628-0.53c-1.341-0.356-2.65-0.86-3.892-1.499
	c-0.172-0.089-0.36-0.133-0.548-0.133c-0.217,0-0.434,0.061-0.625,0.176c-0.357,0.219-0.575,0.605-0.575,1.024v6.188
	c0,0.463,0.266,0.883,0.684,1.082c1.334,0.637,2.645,1.09,3.894,1.35c1.234,0.256,2.765,0.386,4.55,0.386
	c2.212,0,4.182-0.382,5.854-1.134c1.377-0.62,2.514-1.457,3.391-2.491v2.073c0,0.662,0.538,1.199,1.2,1.199h6.943
	c0.663,0,1.2-0.537,1.2-1.199v-7.325h0.751c3.414,0,6.116-0.896,8.03-2.665c0.378-0.35,0.721-0.729,1.026-1.135v11.121
	c0,0.662,0.538,1.199,1.2,1.199h6.94c0.663,0,1.2-0.537,1.2-1.199v-7.928l4.973,8.531c0.215,0.369,0.61,0.596,1.037,0.596h11.46
	c0.542,0,1.017-0.363,1.159-0.887l1.06-3.924h6.508l1.033,3.917c0.139,0.526,0.615,0.894,1.16,0.894h7.59
	c0.385,0,0.746-0.185,0.973-0.496c0.227-0.313,0.287-0.713,0.168-1.078l-8.49-25.801c-0.162-0.492-0.622-0.824-1.141-0.824h-9.26
	c-0.52,0-0.98,0.334-1.141,0.828l-6.306,19.39l-2.708-4.048c2.573-1.803,3.875-4.243,3.875-7.271c0-4.01-2.025-8.79-11.67-8.79
	h-8.42c-0.663,0-1.2,0.538-1.2,1.2v2.203c-0.286-0.352-0.605-0.682-0.956-0.986c-1.846-1.607-4.572-2.422-8.101-2.422h-8.895
	c-0.609,0-1.112,0.454-1.19,1.042C76.621,102.689,74.163,102.216,71.768,102.216L71.768,102.216z M79.079,116.057
	c-1.017-1.082-2.526-2.068-4.586-2.994c-2.9-1.326-3.757-1.847-4.009-2.039c-0.116-0.088-0.311-0.258-0.311-0.4
	c0-0.057,0-0.113,0.148-0.229c0.049-0.037,0.337-0.225,1.236-0.225c1.564,0,3.489,0.52,5.723,1.543
	c0.158,0.073,0.329,0.109,0.5,0.109c0.151,0,0.303-0.029,0.447-0.086c0.306-0.123,0.547-0.365,0.668-0.672l0.184-0.463V116.057
	L79.079,116.057z M107.57,110.24h0.17c2.37,0,2.37,0.914,2.37,1.46c0,1.241-0.408,2.01-2.44,2.01h-0.1V110.24L107.57,110.24z
	 M88.423,110.593h0.593c1.556,0,1.683,0.636,1.683,1.401c0,0.695-0.18,1.203-0.55,1.557c-0.387,0.369-0.93,0.549-1.66,0.549h-0.065
	L88.423,110.593L88.423,110.593z M129.339,117.77c0.479-1.817,0.869-3.322,1.166-4.502c0.177,0.689,0.335,1.289,0.48,1.807
	l0.708,2.695H129.339L129.339,117.77z"/>
<path opacity="0.95" fill="#FFFFFF" enable-background="new    " d="M79.907,121.68c0,1.594-0.404,3.01-1.213,4.245
	c-0.809,1.236-1.975,2.197-3.498,2.884c-1.523,0.686-3.311,1.027-5.361,1.027c-1.711,0-3.146-0.12-4.307-0.359
	c-1.161-0.24-2.367-0.66-3.621-1.258v-6.188c1.324,0.68,2.701,1.21,4.131,1.591c1.43,0.381,2.742,0.571,3.938,0.571
	c1.031,0,1.787-0.18,2.268-0.537c0.481-0.356,0.721-0.816,0.721-1.379c0-0.353-0.097-0.659-0.29-0.924
	c-0.193-0.264-0.504-0.529-0.932-0.799c-0.428-0.271-1.567-0.82-3.419-1.652c-1.676-0.762-2.933-1.5-3.771-2.215
	c-0.838-0.715-1.459-1.535-1.863-2.461c-0.404-0.927-0.606-2.021-0.606-3.287c0-2.367,0.861-4.213,2.584-5.537
	s4.09-1.986,7.102-1.986c2.66,0,5.373,0.615,8.139,1.846l-2.127,5.361c-2.402-1.102-4.477-1.652-6.223-1.652
	c-0.902,0-1.559,0.158-1.969,0.475c-0.41,0.318-0.615,0.709-0.615,1.179c0,0.504,0.261,0.955,0.782,1.354
	c0.521,0.398,1.937,1.125,4.245,2.18c2.215,0.996,3.753,2.064,4.614,3.208C79.477,118.509,79.907,119.945,79.907,121.68z
	 M98.93,111.959c0,2.871-0.847,5.089-2.54,6.652c-1.693,1.564-4.099,2.348-7.216,2.348h-1.951v8.525H80.28v-25.699h8.895
	c3.246,0,5.684,0.709,7.313,2.127C98.117,107.33,98.93,109.346,98.93,111.959z M87.223,115.299h1.266
	c1.043,0,1.872-0.293,2.487-0.879c0.615-0.586,0.923-1.395,0.923-2.426c0-1.734-0.961-2.602-2.883-2.602h-1.793V115.299z
	 M135.061,103.68H125.8l-7.07,21.74l-4.77-7.13c2.91-1.63,4.36-3.931,4.36-6.91c0-5.06-3.49-7.59-10.47-7.59h-8.42v25.69h6.94
	v-9.351h1.76l5.45,9.351h11.46l1.3-4.811h8.35l1.271,4.811h7.59L135.061,103.68z M107.67,114.91h-1.3v-5.87h1.37
	c2.38,0,3.57,0.89,3.57,2.66C111.31,113.84,110.1,114.91,107.67,114.91z M127.78,118.971c1.07-4.031,1.76-6.729,2.07-8.101
	s0.52-2.36,0.62-2.95c0.12,0.641,0.36,1.71,0.73,3.2c0.37,1.479,0.68,2.7,0.94,3.63l1.109,4.221H127.78z M194.98,106.95
	c-2.24-2.11-5.432-3.16-9.551-3.16h-15.32l-2.84,12.92c-0.681,3.21-1.101,5.46-1.25,6.761c-0.131-1.011-0.391-2.531-0.771-4.57
	c-0.39-2.041-0.771-3.84-1.149-5.391l-2.189-9.72h-6.439l-2.271,9.72c-0.341,1.34-0.7,3.04-1.091,5.09
	c-0.399,2.051-0.67,3.682-0.819,4.871c-0.24-1.681-0.67-3.951-1.3-6.801l-2.801-12.88H140.5l6.359,25.69h8.211
	c1.5-6.73,2.35-10.58,2.55-11.53c0.21-0.95,0.42-1.99,0.63-3.12s0.359-2.07,0.46-2.84c0.11,0.939,0.3,2.109,0.55,3.5
	c0.25,1.4,0.44,2.33,0.551,2.8l2.459,11.19h8.211l6.051-24.551v24.551h8.318c4.271,0,7.602-1.16,9.961-3.48s3.539-5.62,3.539-9.91
	C198.35,112.109,197.23,109.061,194.98,106.95z M189.66,121.95c-0.98,1.229-2.53,1.84-4.641,1.84h-1.539v-14.399h2.02
	c1.9,0,3.311,0.569,4.24,1.709c0.939,1.131,1.398,2.881,1.398,5.24C191.141,118.859,190.65,120.73,189.66,121.95z M217.67,129.484
	h-20.021v-4.289l11.127-15.803h-10.862v-5.607h19.478v4.271l-11.127,15.819h11.407L217.67,129.484L217.67,129.484z M203.203,101.729
	v-0.51c1.805-1.934,2.949-3.182,3.438-3.744c0.486-0.562,0.887-1.065,1.203-1.512h7.523v0.369c-0.938,0.75-2.227,1.705-3.867,2.865
	s-2.883,2.004-3.727,2.531H203.203L203.203,101.729z"/>
</svg>
