<?xml version="1.0" encoding="utf-8"?>
<!-- Generator: Adobe Illustrator 16.0.0, SVG Export Plug-In . SVG Version: 6.00 Build 0)  -->
<!DOCTYPE svg PUBLIC "-//W3C//DTD SVG 1.0//EN" "http://www.w3.org/TR/2001/REC-SVG-20010904/DTD/svg10.dtd">
<svg version="1.0" id="Warstwa_1" xmlns="http://www.w3.org/2000/svg" xmlns:xlink="http://www.w3.org/1999/xlink" x="0px" y="0px"
	 width="278px" height="78px" viewBox="0 0 278 78" enable-background="new 0 0 278 78" xml:space="preserve">
<path fill="#1E1E1C" d="M266,2c5.523,0,10,4.478,10,10v54c0,5.522-4.477,10-10,10H12C6.477,76,2,71.522,2,66V12
	C2,6.478,6.477,2,12,2H266 M266,0H12C5.383,0,0,5.383,0,12v54c0,6.617,5.383,12,12,12h254c6.617,0,12-5.383,12-12V12
	C278,5.383,272.617,0,266,0L266,0z"/>
<g>
	<path fill-rule="evenodd" clip-rule="evenodd" fill="#996414" d="M12,2h254c5.523,0,10,4.478,10,10v54c0,5.522-4.477,10-10,10H12
		C6.477,76,2,71.522,2,66V12C2,6.478,6.477,2,12,2z"/>
</g>
<path fill-rule="evenodd" clip-rule="evenodd" fill="#F7A82A" d="M12,2h254c5.523,0,10,4.114,10,9.189v49.621
	c0,5.075-4.477,9.189-10,9.189H12c-5.523,0-10-4.114-10-9.189V11.189C2,6.114,6.477,2,12,2z"/>
<path fill="#D28B1A" d="M274,13.09v47.72c0,3.96-3.59,7.19-8,7.19H12c-4.41,0-8-3.23-8-7.19V13.09l-2-2v49.72C2,65.89,6.48,70,12,70
	h254c5.52,0,10-4.11,10-9.19V11.09L274,13.09z"/>
<path fill="#FCC365" d="M275,59.91V12.19c0-5.08-3.48-9.19-9-9.19H12c-5.52,0-9,4.11-9,9.19v47.72l1.343,2.98L4,12.19
	C4,8.23,7.59,5,12,5h254c4.41,0,8,3.23,8,7.19l-0.343,50.7L275,59.91z"/>
<path fill="#9C6814" d="M144.93,53.48h-9.74l-1.27-4.811h-6.81l-1.3,4.811H113l-5.45-9.351h-0.18v9.351h-8.94V40.73
	c-0.38,0.59-0.84,1.13-1.36,1.619c-1.88,1.73-4.53,2.61-7.9,2.61h-0.95v8.521h-8.94v-3.66c-0.89,1.229-2.12,2.21-3.67,2.899
	c-1.65,0.74-3.59,1.12-5.78,1.12c-1.77,0-3.28-0.13-4.5-0.38c-1.24-0.26-2.53-0.71-3.85-1.34l-0.57-0.271v-8.46l1.45,0.75
	c1.26,0.65,2.58,1.15,3.93,1.521c1.34,0.35,2.58,0.53,3.69,0.53c1.05,0,1.5-0.21,1.67-0.341c0.26-0.189,0.31-0.369,0.31-0.569
	c0-0.181-0.05-0.271-0.09-0.33c-0.07-0.09-0.24-0.29-0.66-0.55c-0.27-0.17-1.05-0.58-3.3-1.591C66.13,42,64.82,41.23,63.9,40.45
	c-0.95-0.81-1.66-1.76-2.13-2.82c-0.46-1.05-0.69-2.29-0.69-3.69c0-2.68,1-4.81,2.98-6.33c1.89-1.46,4.48-2.19,7.71-2.19
	c2.46,0,4.98,0.5,7.51,1.5v-1.13h9.89c3.48,0,6.16,0.79,7.97,2.37c0.5,0.43,0.93,0.92,1.29,1.45v-3.82h9.42
	c9.48,0,11.47,4.67,11.47,8.59c0,3.02-1.33,5.44-3.95,7.21l3.05,4.561l6.65-20.47h10.71L144.93,53.48z M218.67,45.88v7.601h-22.02
	V48.4c-0.341,0.47-0.73,0.909-1.141,1.319c-2.55,2.5-6.13,3.761-10.66,3.761h-9.319v-17.3l-4.261,17.3h-9.8l-2.63-11.98
	c-0.05-0.17-0.1-0.4-0.16-0.7c-0.029,0.12-0.05,0.24-0.08,0.36c-0.199,0.95-1.06,4.8-2.56,11.54l-0.17,0.78h-9.79l-6.86-27.69H148
	l2.96,13.67c0.1,0.45,0.2,0.88,0.29,1.3c0.35-1.77,0.68-3.28,0.98-4.5l2.449-10.47h8.021l2.38,10.5c0.31,1.29,0.63,2.78,0.95,4.42
	c0.08-0.38,0.17-0.79,0.26-1.21l3.02-13.71h16.12c4.37,0,7.811,1.15,10.24,3.43c0.45,0.43,0.87,0.89,1.24,1.39v-4.82h5.29v-1.91
	l0.27-0.28c1.79-1.92,2.94-3.17,3.41-3.72c0.47-0.54,0.851-1.02,1.15-1.44l0.3-0.42h9.04v1.85l-0.38,0.3
	c-0.95,0.76-2.26,1.74-3.91,2.9c-1.65,1.17-2.92,2.03-3.78,2.57l-0.24,0.15h10.33v5.58L208.19,45.88H218.67z M190.14,39.34
	c0-2.11-0.39-3.66-1.17-4.61c-0.739-0.9-1.87-1.34-3.47-1.34h-1.02v12.4h0.539c1.811,0,3.07-0.48,3.86-1.46
	C189.72,43.29,190.14,41.61,190.14,39.34z M206.85,33.39h-8.439c0.63,1.66,0.939,3.56,0.939,5.7c0,2.521-0.39,4.73-1.18,6.63
	L206.85,33.39z"/>
<path fill="#1E1E1C" d="M215.367,14.963v0.369c-0.938,0.75-2.227,1.705-3.867,2.865s-2.883,2.004-3.727,2.531h-4.57v-0.51
	c1.805-1.934,2.95-3.182,3.437-3.744s0.888-1.066,1.204-1.512H215.367 M71.768,22.416c2.66,0,5.373,0.615,8.139,1.846l-2.127,5.361
	c-2.402-1.102-4.477-1.652-6.223-1.652c-0.902,0-1.559,0.158-1.969,0.475s-0.615,0.709-0.615,1.178c0,0.504,0.261,0.955,0.782,1.354
	s1.937,1.125,4.245,2.18c2.215,0.996,3.753,2.065,4.614,3.208s1.292,2.581,1.292,4.315c0,1.594-0.404,3.009-1.213,4.245
	s-1.975,2.197-3.498,2.883s-3.311,1.028-5.361,1.028c-1.711,0-3.146-0.12-4.307-0.36s-2.367-0.659-3.621-1.257v-6.188
	c1.324,0.68,2.701,1.21,4.131,1.591s2.742,0.571,3.938,0.571c1.031,0,1.787-0.179,2.268-0.536s0.721-0.817,0.721-1.38
	c0-0.352-0.097-0.659-0.29-0.923s-0.504-0.53-0.932-0.8s-1.567-0.82-3.419-1.652c-1.676-0.762-2.933-1.5-3.771-2.215
	s-1.459-1.535-1.863-2.461s-0.606-2.021-0.606-3.287c0-2.367,0.861-4.213,2.584-5.537S68.756,22.416,71.768,22.416 M135.06,22.68
	l8.49,25.8h-7.59l-1.27-4.811h-8.35l-1.3,4.811h-11.46l-5.45-9.351h-1.76v9.351h-6.94V22.79h8.42c6.98,0,10.47,2.53,10.47,7.59
	c0,2.98-1.45,5.28-4.36,6.91l4.77,7.13l7.07-21.74H135.06 M127.78,37.97h5.47l-1.11-4.22c-0.26-0.93-0.57-2.15-0.94-3.63
	c-0.37-1.49-0.61-2.56-0.73-3.2c-0.1,0.59-0.31,1.58-0.62,2.95S128.85,33.94,127.78,37.97 M106.37,33.91h1.3
	c2.43,0,3.64-1.07,3.64-3.21c0-1.77-1.19-2.66-3.57-2.66h-1.37V33.91 M217.389,22.785v4.271l-11.127,15.82h11.408v5.607h-20.021
	v-4.289l11.127-15.803h-10.863v-5.607H217.389 M89.174,22.785c3.246,0,5.684,0.709,7.313,2.127s2.443,3.434,2.443,6.047
	c0,2.871-0.847,5.089-2.54,6.653s-4.099,2.347-7.216,2.347h-1.951v8.525h-6.943V22.785H89.174 M87.223,34.299h1.266
	c1.043,0,1.872-0.293,2.487-0.879s0.923-1.395,0.923-2.426c0-1.734-0.961-2.602-2.883-2.602h-1.793V34.299 M185.43,22.79
	c4.12,0,7.311,1.05,9.551,3.16c2.25,2.11,3.369,5.16,3.369,9.14c0,4.29-1.18,7.59-3.54,9.91c-2.359,2.32-5.689,3.48-9.96,3.48
	h-8.319V23.93l-6.05,24.55h-8.211l-2.46-11.19c-0.109-0.47-0.3-1.4-0.55-2.8c-0.25-1.39-0.439-2.56-0.55-3.5
	c-0.1,0.77-0.25,1.71-0.46,2.84s-0.42,2.17-0.63,3.12c-0.2,0.95-1.05,4.8-2.55,11.53h-8.21l-6.36-25.69h6.69l2.8,12.88
	c0.63,2.85,1.06,5.12,1.3,6.8c0.15-1.189,0.42-2.82,0.82-4.87c0.39-2.05,0.75-3.75,1.09-5.09l2.27-9.72h6.44l2.189,9.72
	c0.381,1.55,0.761,3.35,1.15,5.39c0.38,2.04,0.64,3.56,0.77,4.57c0.15-1.3,0.57-3.55,1.25-6.76l2.841-12.92H185.43 M183.48,42.79
	h1.539c2.11,0,3.66-0.61,4.641-1.84c0.99-1.22,1.479-3.09,1.479-5.61c0-2.36-0.46-4.11-1.399-5.24c-0.931-1.14-2.34-1.71-4.24-1.71
	h-2.02V42.79 M215.367,13.763h-7.523c-0.389,0-0.753,0.188-0.979,0.505c-0.293,0.412-0.674,0.891-1.134,1.422
	c-0.474,0.548-1.619,1.796-3.405,3.71c-0.208,0.222-0.323,0.515-0.323,0.819v0.51c0,0.335,0.138,0.639,0.36,0.856h-4.451
	c-0.663,0-1.2,0.538-1.2,1.2v3.255c-0.282-0.339-0.586-0.661-0.91-0.966c-2.454-2.312-5.944-3.485-10.372-3.485H170.11
	c-0.563,0-1.051,0.392-1.172,0.942l-2.841,12.92c-0.019,0.088-0.037,0.176-0.056,0.263c-0.269-1.313-0.525-2.466-0.777-3.492
	l-2.184-9.697c-0.124-0.547-0.609-0.937-1.171-0.937h-6.44c-0.558,0-1.042,0.384-1.169,0.927l-2.27,9.72
	c-0.243,0.959-0.504,2.13-0.788,3.543c-0.026-0.122-0.054-0.245-0.081-0.369l-2.799-12.876c-0.12-0.552-0.608-0.945-1.173-0.945
	h-6.69c-0.369,0-0.718,0.17-0.945,0.46c-0.228,0.291-0.309,0.67-0.22,1.028l6.36,25.69c0.133,0.536,0.613,0.912,1.165,0.912h8.21
	c0.563,0,1.049-0.391,1.171-0.939c1.208-5.419,2.09-9.402,2.438-11.006l2.419,11.003c0.121,0.55,0.608,0.942,1.172,0.942h8.211
	c0.552,0,1.033-0.377,1.165-0.913l3.685-14.953V48.48c0,0.663,0.537,1.2,1.2,1.2h8.319c4.587,0,8.221-1.287,10.802-3.825
	c0.28-0.276,0.546-0.564,0.797-0.866v3.495c0,0.663,0.537,1.2,1.2,1.2h20.021c0.663,0,1.2-0.537,1.2-1.2v-5.607
	c0-0.663-0.537-1.2-1.2-1.2h-9.097l9.797-13.93c0.143-0.202,0.219-0.443,0.219-0.69v-4.271c0-0.663-0.537-1.2-1.2-1.2h-8.725
	c0.849-0.542,2.033-1.351,3.528-2.408c1.652-1.168,2.973-2.147,3.925-2.908c0.284-0.228,0.45-0.572,0.45-0.937v-0.369
	C216.567,14.3,216.03,13.763,215.367,13.763L215.367,13.763z M184.681,29.59h0.819c1.531,0,2.613,0.415,3.311,1.269
	c0.752,0.904,1.129,2.409,1.129,4.481c0,2.23-0.407,3.864-1.211,4.854c-0.751,0.941-1.963,1.396-3.709,1.396h-0.339V29.59
	L184.681,29.59z M198.7,29.593h7.763l-7.621,10.822c0.471-1.593,0.708-3.371,0.708-5.325C199.55,33.041,199.265,31.206,198.7,29.593
	L198.7,29.593z M71.768,21.216c-3.269,0-5.904,0.752-7.833,2.235c-2.025,1.557-3.053,3.74-3.053,6.488
	c0,1.426,0.238,2.693,0.707,3.768c0.476,1.089,1.21,2.063,2.184,2.894c0.932,0.795,2.258,1.578,4.053,2.394
	c2.354,1.058,3.063,1.441,3.276,1.576c0.405,0.255,0.557,0.431,0.604,0.494c0.03,0.041,0.058,0.095,0.058,0.213
	c0,0.132-0.018,0.254-0.237,0.417c-0.121,0.09-0.514,0.299-1.551,0.299c-1.085,0-2.306-0.179-3.628-0.53
	c-1.341-0.357-2.65-0.861-3.892-1.499c-0.172-0.089-0.36-0.133-0.548-0.133c-0.217,0-0.434,0.059-0.625,0.176
	c-0.357,0.218-0.575,0.606-0.575,1.024v6.188c0,0.463,0.266,0.884,0.684,1.083c1.334,0.637,2.645,1.09,3.894,1.349
	c1.234,0.256,2.765,0.386,4.55,0.386c2.212,0,4.182-0.382,5.854-1.134c1.377-0.62,2.514-1.456,3.391-2.491v2.073
	c0,0.663,0.538,1.2,1.2,1.2h6.943c0.663,0,1.2-0.537,1.2-1.2v-7.325h0.751c3.414,0,6.116-0.896,8.03-2.666
	c0.378-0.35,0.721-0.728,1.026-1.133v11.12c0,0.663,0.538,1.2,1.2,1.2h6.94c0.663,0,1.2-0.537,1.2-1.2v-7.928l4.973,8.532
	c0.215,0.369,0.61,0.596,1.037,0.596h11.46c0.542,0,1.017-0.363,1.159-0.887l1.06-3.924h6.507l1.034,3.917
	c0.139,0.526,0.615,0.894,1.16,0.894h7.59c0.385,0,0.746-0.185,0.972-0.497c0.227-0.312,0.288-0.713,0.168-1.078l-8.49-25.8
	c-0.162-0.492-0.622-0.825-1.14-0.825h-9.26c-0.52,0-0.98,0.335-1.141,0.829l-6.306,19.389l-2.708-4.048
	c2.573-1.802,3.875-4.242,3.875-7.27c0-4.01-2.025-8.79-11.67-8.79h-8.42c-0.663,0-1.2,0.538-1.2,1.2v2.203
	c-0.286-0.352-0.605-0.681-0.956-0.986c-1.846-1.607-4.572-2.422-8.101-2.422h-8.895c-0.609,0-1.112,0.454-1.19,1.042
	C76.621,21.69,74.163,21.216,71.768,21.216L71.768,21.216z M79.079,35.057c-1.017-1.084-2.526-2.069-4.586-2.995
	c-2.9-1.325-3.757-1.846-4.009-2.039c-0.116-0.088-0.311-0.258-0.311-0.4c0-0.056,0-0.113,0.148-0.228
	c0.049-0.038,0.337-0.225,1.236-0.225c1.564,0,3.489,0.519,5.723,1.543c0.158,0.073,0.329,0.109,0.5,0.109
	c0.151,0,0.303-0.029,0.447-0.086c0.306-0.123,0.547-0.365,0.668-0.671l0.184-0.464V35.057L79.079,35.057z M107.57,29.24h0.17
	c2.37,0,2.37,0.914,2.37,1.46c0,1.241-0.408,2.01-2.44,2.01h-0.1V29.24L107.57,29.24z M88.423,29.593h0.593
	c1.556,0,1.683,0.635,1.683,1.401c0,0.695-0.18,1.204-0.55,1.557c-0.387,0.369-0.93,0.548-1.66,0.548h-0.065V29.593L88.423,29.593z
	 M129.339,36.77c0.479-1.819,0.869-3.324,1.166-4.504c0.177,0.69,0.335,1.29,0.48,1.807l0.709,2.697H129.339L129.339,36.77z"/>
<path fill="#FFFFFF" d="M79.907,40.68c0,1.594-0.404,3.009-1.213,4.245s-1.975,2.197-3.498,2.883s-3.311,1.028-5.361,1.028
	c-1.711,0-3.146-0.12-4.307-0.36s-2.367-0.659-3.621-1.257v-6.188c1.324,0.68,2.701,1.21,4.131,1.591s2.742,0.571,3.938,0.571
	c1.031,0,1.787-0.179,2.268-0.536s0.721-0.817,0.721-1.38c0-0.352-0.097-0.659-0.29-0.923s-0.504-0.53-0.932-0.8
	s-1.567-0.82-3.419-1.652c-1.676-0.762-2.933-1.5-3.771-2.215s-1.459-1.535-1.863-2.461s-0.606-2.021-0.606-3.287
	c0-2.367,0.861-4.213,2.584-5.537s4.09-1.986,7.102-1.986c2.66,0,5.373,0.615,8.139,1.846l-2.127,5.361
	c-2.402-1.102-4.477-1.652-6.223-1.652c-0.902,0-1.559,0.158-1.969,0.475s-0.615,0.709-0.615,1.178c0,0.504,0.261,0.955,0.782,1.354
	s1.937,1.125,4.245,2.18c2.215,0.996,3.753,2.065,4.614,3.208S79.907,38.945,79.907,40.68z M98.93,30.959
	c0,2.871-0.847,5.089-2.54,6.653s-4.099,2.347-7.216,2.347h-1.951v8.525h-6.943V22.785h8.895c3.246,0,5.684,0.709,7.313,2.127
	S98.93,28.346,98.93,30.959z M87.223,34.299h1.266c1.043,0,1.872-0.293,2.487-0.879s0.923-1.395,0.923-2.426
	c0-1.734-0.961-2.602-2.883-2.602h-1.793V34.299z M135.06,22.68h-9.26l-7.07,21.74l-4.77-7.13c2.91-1.63,4.36-3.93,4.36-6.91
	c0-5.06-3.49-7.59-10.47-7.59h-8.42v25.69h6.94V39.13h1.76l5.45,9.351h11.46l1.3-4.811h8.35l1.27,4.811h7.59L135.06,22.68z
	 M107.67,33.91h-1.3v-5.87h1.37c2.38,0,3.57,0.89,3.57,2.66C111.31,32.84,110.1,33.91,107.67,33.91z M127.78,37.97
	c1.07-4.03,1.76-6.73,2.07-8.1s0.52-2.36,0.62-2.95c0.12,0.64,0.36,1.71,0.73,3.2c0.37,1.48,0.68,2.7,0.94,3.63l1.11,4.22H127.78z
	 M194.98,25.95c-2.24-2.11-5.431-3.16-9.551-3.16H170.11l-2.841,12.92c-0.68,3.21-1.1,5.46-1.25,6.76
	c-0.13-1.01-0.39-2.53-0.77-4.57c-0.39-2.04-0.77-3.84-1.15-5.39l-2.189-9.72h-6.44l-2.27,9.72c-0.34,1.34-0.7,3.04-1.09,5.09
	c-0.4,2.05-0.67,3.68-0.82,4.87c-0.24-1.68-0.67-3.95-1.3-6.8l-2.8-12.88h-6.69l6.36,25.69h8.21c1.5-6.73,2.35-10.581,2.55-11.53
	c0.21-0.95,0.42-1.99,0.63-3.12s0.36-2.07,0.46-2.84c0.11,0.94,0.3,2.11,0.55,3.5c0.25,1.4,0.44,2.33,0.55,2.8l2.46,11.19h8.211
	l6.05-24.55v24.55h8.319c4.271,0,7.601-1.16,9.96-3.48c2.36-2.32,3.54-5.62,3.54-9.91C198.35,31.11,197.23,28.06,194.98,25.95z
	 M189.66,40.95c-0.98,1.229-2.53,1.84-4.641,1.84h-1.539v-14.4h2.02c1.9,0,3.31,0.57,4.24,1.71c0.939,1.13,1.399,2.88,1.399,5.24
	C191.14,37.86,190.65,39.73,189.66,40.95z M217.67,48.484h-20.021v-4.289l11.127-15.803h-10.863v-5.607h19.477v4.271l-11.127,15.82
	h11.408V48.484z M203.203,20.729v-0.51c1.805-1.934,2.95-3.182,3.437-3.744s0.888-1.066,1.204-1.512h7.523v0.369
	c-0.938,0.75-2.227,1.705-3.867,2.865s-2.883,2.004-3.727,2.531H203.203z"/>
<g>
	<path fill="#FCC365" d="M47.449,11.335c0,1.653-1.217,2.992-2.718,2.992h-0.709c-1.501,0-2.718-1.339-2.718-2.992l0,0
		c0-1.652,1.217-2.992,2.718-2.992h0.709C46.232,8.343,47.449,9.683,47.449,11.335L47.449,11.335z M36.685,8.343H11.765
		c-0.119,0-0.238,0.011-0.347,0.024c-0.13,0.011-0.26,0.047-0.38,0.083c-0.108,0.036-0.206,0.072-0.303,0.12
		c-0.011,0-0.022,0-0.033,0.012c-0.098,0.048-0.195,0.095-0.282,0.155c-0.412,0.25-0.77,0.632-1.02,1.11l-0.239,0.597l-0.01,0.048
		L7.363,18.02c-0.749,1.432-0.304,3.259,1.008,4.083c1.291,0.824,2.96,0.322,3.708-1.11l1.454-6.668h23.151
		c1.507,0,2.721-1.337,2.721-2.984C39.406,9.68,38.191,8.343,36.685,8.343z"/>
</g>
</svg>
